<?xml version="1.0" encoding="UTF-8"?>
<svg xmlns="http://www.w3.org/2000/svg" xmlns:xlink="http://www.w3.org/1999/xlink" version="1.1" id="Capa_1" x="0px" y="0px" viewBox="0 0 510 510" style="enable-background:new 0 0 510 510;" xml:space="preserve" width="512" height="512">
<g id="XMLID_32_">
	
		<path id="XMLID_425_" style="fill:none;stroke:#000000;stroke-width:20;stroke-linecap:round;stroke-linejoin:round;stroke-miterlimit:10;" d="&#10;&#9;&#9;M140,90c74.387-27.441,151.182-25.893,230,0"/>
	
		<path id="XMLID_423_" style="fill:none;stroke:#000000;stroke-width:20;stroke-linecap:round;stroke-linejoin:round;stroke-miterlimit:10;" d="&#10;&#9;&#9;M370,500H140V30.004c74.387-27.44,151.182-25.893,230,0V500z"/>
	
		<path id="XMLID_422_" style="fill:none;stroke:#000000;stroke-width:20;stroke-linecap:round;stroke-linejoin:round;stroke-miterlimit:10;" d="&#10;&#9;&#9;M140,150.004c74.387-27.44,151.182-25.893,230,0"/>
	
		<path id="XMLID_421_" style="fill:none;stroke:#000000;stroke-width:20;stroke-linecap:round;stroke-linejoin:round;stroke-miterlimit:10;" d="&#10;&#9;&#9;M140,210.004c74.387-27.44,151.182-25.893,230,0"/>
	
		<path id="XMLID_419_" style="fill:none;stroke:#000000;stroke-width:20;stroke-linecap:round;stroke-linejoin:round;stroke-miterlimit:10;" d="&#10;&#9;&#9;M140,270.004c74.387-27.44,151.182-25.893,230,0"/>
	
		<path id="XMLID_418_" style="fill:none;stroke:#000000;stroke-width:20;stroke-linecap:round;stroke-linejoin:round;stroke-miterlimit:10;" d="&#10;&#9;&#9;M140,330.004c74.387-27.44,151.182-25.893,230,0"/>
	
		<line id="XMLID_414_" style="fill:none;stroke:#000000;stroke-width:20;stroke-linecap:round;stroke-linejoin:round;stroke-miterlimit:10;" x1="10" y1="500" x2="500" y2="500"/>
	
		<polygon id="XMLID_413_" style="fill:none;stroke:#000000;stroke-width:20;stroke-linecap:round;stroke-linejoin:round;stroke-miterlimit:10;" points="&#10;&#9;&#9;430,500 370,500 370,160 430,120 &#9;"/>
	
		<polyline id="XMLID_410_" style="fill:none;stroke:#000000;stroke-width:20;stroke-linecap:round;stroke-linejoin:round;stroke-miterlimit:10;" points="&#10;&#9;&#9;430,180 480,180 480,500 &#9;"/>
	
		<polygon id="XMLID_409_" style="fill:none;stroke:#000000;stroke-width:20;stroke-linecap:round;stroke-linejoin:round;stroke-miterlimit:10;" points="&#10;&#9;&#9;80,500 140,500 140,160 80,120 &#9;"/>
	
		<polyline id="XMLID_408_" style="fill:none;stroke:#000000;stroke-width:20;stroke-linecap:round;stroke-linejoin:round;stroke-miterlimit:10;" points="&#10;&#9;&#9;80,180 30,180 30,500 &#9;"/>
	
		<rect id="XMLID_406_" x="200" y="370" style="fill:none;stroke:#000000;stroke-width:20;stroke-linecap:round;stroke-linejoin:round;stroke-miterlimit:10;" width="110" height="130"/>
	
		<line id="XMLID_405_" style="fill:none;stroke:#000000;stroke-width:20;stroke-linecap:round;stroke-linejoin:round;stroke-miterlimit:10;" x1="255" y1="500" x2="255" y2="370"/>
	
		<line id="XMLID_404_" style="fill:none;stroke:#000000;stroke-width:20;stroke-linecap:round;stroke-linejoin:round;stroke-miterlimit:10;" x1="180" y1="370" x2="330" y2="370"/>
</g>















</svg>
