<?xml version="1.0" encoding="UTF-8" standalone="no"?>
<!-- Created with Inkscape (http://www.inkscape.org/) -->

<svg
   version="1.1"
   id="svg4335"
   xml:space="preserve"
   width="682.66669"
   height="682.66669"
   viewBox="0 0 682.66669 682.66669"
   xmlns="http://www.w3.org/2000/svg"
   xmlns:svg="http://www.w3.org/2000/svg"><defs
     id="defs4339"><clipPath
       clipPathUnits="userSpaceOnUse"
       id="clipPath4349"><path
         d="M 0,512 H 512 V 0 H 0 Z"
         id="path4347" /></clipPath></defs><g
     id="g4341"
     transform="matrix(1.3333333,0,0,-1.3333333,0,682.66667)"><g
       id="g4343"><g
         id="g4345"
         clip-path="url(#clipPath4349)"><g
           id="g4351"
           transform="translate(425.3613,57)"><path
             d="m 0,0 h -377.861 c -22.092,0 -40,17.908 -40,40 v 318 c 0,22.092 17.908,40 40,40 h 33.308"
             style="fill:none;stroke:#000000;stroke-width:15;stroke-linecap:round;stroke-linejoin:round;stroke-miterlimit:10;stroke-dasharray:none;stroke-opacity:1"
             id="path4353" /></g><g
           id="g4355"
           transform="translate(115.8086,455)"><path
             d="m 0,0 h 348.691 c 22.092,0 40,-17.908 40,-40 v -318 c 0,-22.092 -17.908,-40 -40,-40 H 344"
             style="fill:none;stroke:#000000;stroke-width:15;stroke-linecap:round;stroke-linejoin:round;stroke-miterlimit:10;stroke-dasharray:none;stroke-opacity:1"
             id="path4357" /></g><g
           id="g4359"
           transform="translate(53.25,395.25)"><path
             d="m 0,0 v 0 c -8.284,0 -15,6.716 -15,15 0,8.284 6.716,15 15,15 C 8.284,30 15,23.284 15,15 15,6.716 8.284,0 0,0 Z"
             style="fill:none;stroke:#000000;stroke-width:15;stroke-linecap:round;stroke-linejoin:round;stroke-miterlimit:10;stroke-dasharray:none;stroke-opacity:1"
             id="path4361" /></g><g
           id="g4363"
           transform="translate(117.5,395)"><path
             d="m 0,0 v 0 c -8.284,0 -15,6.716 -15,15 0,8.284 6.716,15 15,15 C 8.284,30 15,23.284 15,15 15,6.716 8.284,0 0,0 Z"
             style="fill:none;stroke:#000000;stroke-width:15;stroke-linecap:round;stroke-linejoin:round;stroke-miterlimit:10;stroke-dasharray:none;stroke-opacity:1"
             id="path4365" /></g><g
           id="g4367"
           transform="translate(181.5,395)"><path
             d="m 0,0 v 0 c -8.284,0 -15,6.716 -15,15 0,8.284 6.716,15 15,15 C 8.284,30 15,23.284 15,15 15,6.716 8.284,0 0,0 Z"
             style="fill:none;stroke:#000000;stroke-width:15;stroke-linecap:round;stroke-linejoin:round;stroke-miterlimit:10;stroke-dasharray:none;stroke-opacity:1"
             id="path4369" /></g><g
           id="g4371"
           transform="translate(459.5,395)"><path
             d="m 0,0 h -213 c -8.284,0 -15,6.716 -15,15 0,8.284 6.716,15 15,15 H 0 C 8.284,30 15,23.284 15,15 15,6.716 8.284,0 0,0 Z"
             style="fill:none;stroke:#000000;stroke-width:15;stroke-linecap:round;stroke-linejoin:round;stroke-miterlimit:10;stroke-dasharray:none;stroke-opacity:1"
             id="path4373" /></g><g
           id="g4375"
           transform="translate(346,365)"><path
             d="M 0,0 H -338.5"
             style="fill:none;stroke:#000000;stroke-width:15;stroke-linecap:round;stroke-linejoin:round;stroke-miterlimit:10;stroke-dasharray:none;stroke-opacity:1"
             id="path4377" /></g><g
           id="g4379"
           transform="translate(504.5,365)"><path
             d="M 0,0 H -123.5"
             style="fill:none;stroke:#000000;stroke-width:15;stroke-linecap:round;stroke-linejoin:round;stroke-miterlimit:10;stroke-dasharray:none;stroke-opacity:1"
             id="path4381" /></g><g
           id="g4383"
           transform="translate(312.3086,297.5957)"><path
             d="M 0,0 H 143"
             style="fill:none;stroke:#000000;stroke-width:15;stroke-linecap:round;stroke-linejoin:round;stroke-miterlimit:10;stroke-dasharray:none;stroke-opacity:1"
             id="path4385" /></g><g
           id="g4387"
           transform="translate(312.3086,257.5957)"><path
             d="M 0,0 H 143"
             style="fill:none;stroke:#000000;stroke-width:15;stroke-linecap:round;stroke-linejoin:round;stroke-miterlimit:10;stroke-dasharray:none;stroke-opacity:1"
             id="path4389" /></g><g
           id="g4391"
           transform="translate(312.3086,217.5957)"><path
             d="M 0,0 H 143"
             style="fill:none;stroke:#000000;stroke-width:15;stroke-linecap:round;stroke-linejoin:round;stroke-miterlimit:10;stroke-dasharray:none;stroke-opacity:1"
             id="path4393" /></g><g
           id="g4395"
           transform="translate(334,101.0957)"><path
             d="m 0,0 h -156 c -15.464,0 -28,12.536 -28,28 0,15.464 12.536,28 28,28 H 0 C 15.464,56 28,43.464 28,28 28,12.536 15.464,0 0,0 Z"
             style="fill:none;stroke:#000000;stroke-width:15;stroke-linecap:round;stroke-linejoin:round;stroke-miterlimit:10;stroke-dasharray:none;stroke-opacity:1"
             id="path4397" /></g><g
           id="g4399"
           transform="translate(196.3086,201.0957)"><path
             d="m 0,0 h -110 c -16.568,0 -30,13.432 -30,30 v 53 c 0,16.568 13.432,30 30,30 H 0 C 16.568,113 30,99.568 30,83 V 30 C 30,13.432 16.568,0 0,0 Z"
             style="fill:none;stroke:#000000;stroke-width:15;stroke-linecap:round;stroke-linejoin:round;stroke-miterlimit:10;stroke-dasharray:none;stroke-opacity:1"
             id="path4401" /></g><g
           id="g4403"
           transform="translate(112.248,262.4102)"><path
             d="m 0,0 16.061,24.686 54,-85"
             style="fill:none;stroke:#000000;stroke-width:15;stroke-linecap:round;stroke-linejoin:round;stroke-miterlimit:10;stroke-dasharray:none;stroke-opacity:1"
             id="path4405" /></g><g
           id="g4407"
           transform="translate(74.3086,204.0957)"><path
             d="M 0,0 18.821,28.93"
             style="fill:none;stroke:#000000;stroke-width:15;stroke-linecap:round;stroke-linejoin:round;stroke-miterlimit:10;stroke-dasharray:none;stroke-opacity:1"
             id="path4409" /></g><g
           id="g4411"
           transform="translate(158.3086,240.0957)"><path
             d="M 0,0 32,36 68,-7"
             style="fill:none;stroke:#000000;stroke-width:15;stroke-linecap:round;stroke-linejoin:round;stroke-miterlimit:10;stroke-dasharray:none;stroke-opacity:1"
             id="path4413" /></g></g></g></g></svg>
