<svg width="33" height="25" viewBox="0 0 33 25" fill="none" xmlns="http://www.w3.org/2000/svg">
<g filter="url(#filter0_d_2330_16)">
<path d="M23.8858 8L17.3858 4.24722V11.7528L23.8858 8ZM4.3429 8.65L18.0358 8.65V7.35L4.3429 7.35V8.65Z" fill="#00C4FF"/>
<mask id="path-2-inside-1_2330_16" fill="white">
<path d="M12.4745 2.48959C13.7651 1.30085 15.4095 0.4913 17.1997 0.163325C18.9898 -0.164649 20.8454 0.00367891 22.5317 0.647024C24.218 1.29037 25.6593 2.37983 26.6733 3.77765C27.6874 5.17547 28.2286 6.81886 28.2286 8.5C28.2286 10.1811 27.6874 11.8245 26.6733 13.2223C25.6593 14.6202 24.218 15.7096 22.5317 16.353C20.8454 16.9963 18.9898 17.1646 17.1997 16.8367C15.4095 16.5087 13.7651 15.6992 12.4745 14.5104L13.8617 13.2327C14.8779 14.1688 16.1728 14.8062 17.5824 15.0645C18.992 15.3228 20.4531 15.1902 21.7809 14.6836C23.1088 14.177 24.2437 13.3192 25.0422 12.2185C25.8407 11.1178 26.2669 9.82377 26.2669 8.5C26.2669 7.17623 25.8407 5.88219 25.0422 4.78151C24.2437 3.68084 23.1088 2.82296 21.7809 2.31638C20.4531 1.8098 18.992 1.67725 17.5824 1.9355C16.1728 2.19376 14.8779 2.83122 13.8617 3.76726L12.4745 2.48959Z"/>
</mask>
<path d="M12.4745 2.48959C13.7651 1.30085 15.4095 0.4913 17.1997 0.163325C18.9898 -0.164649 20.8454 0.00367891 22.5317 0.647024C24.218 1.29037 25.6593 2.37983 26.6733 3.77765C27.6874 5.17547 28.2286 6.81886 28.2286 8.5C28.2286 10.1811 27.6874 11.8245 26.6733 13.2223C25.6593 14.6202 24.218 15.7096 22.5317 16.353C20.8454 16.9963 18.9898 17.1646 17.1997 16.8367C15.4095 16.5087 13.7651 15.6992 12.4745 14.5104L13.8617 13.2327C14.8779 14.1688 16.1728 14.8062 17.5824 15.0645C18.992 15.3228 20.4531 15.1902 21.7809 14.6836C23.1088 14.177 24.2437 13.3192 25.0422 12.2185C25.8407 11.1178 26.2669 9.82377 26.2669 8.5C26.2669 7.17623 25.8407 5.88219 25.0422 4.78151C24.2437 3.68084 23.1088 2.82296 21.7809 2.31638C20.4531 1.8098 18.992 1.67725 17.5824 1.9355C16.1728 2.19376 14.8779 2.83122 13.8617 3.76726L12.4745 2.48959Z" stroke="#00C4FF" stroke-width="4" mask="url(#path-2-inside-1_2330_16)"/>
</g>
<defs>
<filter id="filter0_d_2330_16" x="0.342896" y="0" width="31.8857" height="25" filterUnits="userSpaceOnUse" color-interpolation-filters="sRGB">
<feFlood flood-opacity="0" result="BackgroundImageFix"/>
<feColorMatrix in="SourceAlpha" type="matrix" values="0 0 0 0 0 0 0 0 0 0 0 0 0 0 0 0 0 0 127 0" result="hardAlpha"/>
<feOffset dy="4"/>
<feGaussianBlur stdDeviation="2"/>
<feComposite in2="hardAlpha" operator="out"/>
<feColorMatrix type="matrix" values="0 0 0 0 0 0 0 0 0 0 0 0 0 0 0 0 0 0 0.25 0"/>
<feBlend mode="normal" in2="BackgroundImageFix" result="effect1_dropShadow_2330_16"/>
<feBlend mode="normal" in="SourceGraphic" in2="effect1_dropShadow_2330_16" result="shape"/>
</filter>
</defs>
</svg>
