<svg width="50" height="73" viewBox="0 0 50 73" fill="none" xmlns="http://www.w3.org/2000/svg">
<circle cx="25" cy="25" r="25" fill="url(#paint0_linear_2463_2)"/>
<path d="M13.218 25.114C13.218 23.8767 13.5467 22.678 14.204 21.518C14.9 20.3193 15.77 19.3333 16.814 18.56C17.8967 17.748 18.9987 17.342 20.12 17.342C20.5067 17.342 20.9127 17.4967 21.338 17.806C21.7633 18.0767 21.976 18.5987 21.976 19.372C21.976 20.1067 21.7247 20.5513 21.222 20.706C20.758 20.8607 20.294 21.054 19.83 21.286C19.2887 21.5567 18.8633 21.9047 18.554 22.33C18.2447 22.7167 18.09 23.1807 18.09 23.722C18.09 24.1473 18.264 24.534 18.612 24.882C18.9987 25.1913 19.4627 25.346 20.004 25.346C20.2747 25.346 20.5453 25.3267 20.816 25.288C21.1253 25.2107 21.396 25.0947 21.628 24.94C21.976 25.0947 22.266 25.3267 22.498 25.636C22.73 25.9067 22.846 26.3127 22.846 26.854C22.8073 27.8593 22.3047 28.7487 21.338 29.522C20.41 30.2567 19.308 30.624 18.032 30.624C16.6013 30.624 15.4413 30.102 14.552 29.058C13.6627 28.014 13.218 26.6993 13.218 25.114ZM24.876 25.114C24.876 23.8767 25.2047 22.678 25.862 21.518C26.558 20.3193 27.428 19.3333 28.472 18.56C29.5547 17.748 30.6567 17.342 31.778 17.342C32.1647 17.342 32.5707 17.4967 32.996 17.806C33.4213 18.0767 33.634 18.5987 33.634 19.372C33.634 20.1067 33.3827 20.5513 32.88 20.706C32.416 20.8607 31.952 21.054 31.488 21.286C30.9467 21.5567 30.5213 21.9047 30.212 22.33C29.9027 22.7167 29.748 23.1807 29.748 23.722C29.748 24.1473 29.922 24.534 30.27 24.882C30.6567 25.1913 31.1207 25.346 31.662 25.346C31.9327 25.346 32.2033 25.3267 32.474 25.288C32.7833 25.2107 33.054 25.0947 33.286 24.94C33.634 25.0947 33.924 25.3267 34.156 25.636C34.388 25.9067 34.504 26.3127 34.504 26.854C34.4653 27.8593 33.9627 28.7487 32.996 29.522C32.068 30.2567 30.966 30.624 29.69 30.624C28.2593 30.624 27.0993 30.102 26.21 29.058C25.3207 28.014 24.876 26.6993 24.876 25.114Z" fill="white"/>
<defs>
<linearGradient id="paint0_linear_2463_2" x1="25" y1="0" x2="25" y2="50" gradientUnits="userSpaceOnUse">
<stop stop-color="#022B5A"/>
<stop offset="1" stop-color="#002631"/>
</linearGradient>
</defs>
</svg>
