<svg id="Layer_1" enable-background="new 0 0 100 100" viewBox="0 0 100 100" xmlns="http://www.w3.org/2000/svg"><g clip-rule="evenodd" fill-rule="evenodd"><path d="m18.6296692 7.0219154-15.0778918 22.6190472h-1.0517774v-15.833333c0-1.8004532.7147834-3.526288 1.9882092-4.7975044 1.2712169-1.2734261 2.9970518-1.9882098 4.7975049-1.9882098z"/><path d="m24.0672703 7.0219154-15.0778933 22.6190472h12.6576376l15.0778923-22.6190472z"/><path d="m42.1625099 7.0219154-15.0778942 22.6190472h12.6576366l15.0778924-22.6190472z"/><path d="m60.2577477 7.0219154-15.0778924 22.6190472h12.6576347l15.0778924-22.6190472z"/><path d="m78.3529816 7.0219154h12.3613052c.0972595 0 .194519.0022779.2940598.0067649l-15.075615 22.6122823h-12.6576385z"/><path d="m95.2742691 8.7839203c.0814514.0724106.1606216.1470299.2375183.2262049 1.2734299 1.2712164 1.9882126 2.9970512 1.9882126 4.7975044v15.833333h-16.1296692z"/><path d="m2.4999998 34.168087v52.0200157c0 1.7999878.710022 3.5299683 1.98999 4.7999878 1.2700195 1.2700195 3 1.9899902 4.7999883 1.9899902h81.4200439c1.7999878 0 3.5299683-.7199707 4.7999878-1.9899902 1.2799683-1.2700195 1.9899902-3 1.9899902-4.7999878v-52.0200157zm62.2299807 31.3400307-22.6099854 13.5699386c-.7000122.4200439-1.5700073.4300537-2.2799683.0300293-.710022-.4000244-1.1500244-1.1500244-1.1500244-1.9699707v-27.1400108c0-.8099976.4400024-1.5700073 1.1500244-1.9700317.7099609-.3999634 1.5799561-.3899536 2.2799683.0300293l22.6099854 13.5700073c.6900024.4099731 1.1000366 1.1499634 1.1000366 1.9400024 0 .7999916-.4100342 1.5299721-1.1000366 1.9400063z"/></g></svg>